<svg xmlns="http://www.w3.org/2000/svg"  viewBox="0 0 50 50" width="90px" height="90px"><path d="M25,3C12.869,3,3,12.869,3,25s9.869,22,22,22s22-9.869,22-22S37.131,3,25,3z M44.828,22.513l-3.936,0.693	c-0.075-0.67-0.202-1.324-0.358-1.967l3.947-0.695C44.63,21.19,44.745,21.846,44.828,22.513z M41.78,14.155	c0.364,0.561,0.697,1.141,1.004,1.738l-3.469,2.004c-0.3-0.601-0.625-1.187-0.995-1.743L41.78,14.155z M37.055,9.079	c0.533,0.404,1.044,0.833,1.533,1.287l-2.569,3.062l-1.525-1.297L37.055,9.079z M31.648,17.551	c-0.497-0.444-1.037-0.839-1.616-1.178l2.356-3.242c0.568,0.355,1.112,0.741,1.622,1.17L31.648,17.551z M33,25c0,4.411-3.589,8-8,8	s-8-3.589-8-8s3.589-8,8-8S33,20.589,33,25z M30.894,5.889c0.64,0.198,1.268,0.425,1.879,0.684L31.4,10.345	c-0.608-0.266-1.234-0.494-1.878-0.684L30.894,5.889z M24,5.051C24.333,5.034,24.662,5,25,5s0.667,0.034,1,0.051v4	C25.668,9.03,25.338,9,25,9s-0.668,0.03-1,0.051V5.051z M24,11.051C24.332,11.027,24.662,11,25,11s0.668,0.027,1,0.051v4	C25.671,15.018,25.338,15,25,15s-0.671,0.018-1,0.051V11.051z M19.106,5.889l1.372,3.772c-0.644,0.19-1.271,0.418-1.878,0.684	l-1.372-3.773C17.839,6.314,18.466,6.086,19.106,5.889z M15.852,20.976c-0.267,0.605-0.477,1.241-0.62,1.901l-3.807-1.237	c0.162-0.653,0.361-1.291,0.611-1.904L15.852,20.976z M12.945,9.079l2.56,3.053l-1.525,1.297l-2.569-3.062	C11.901,9.912,12.412,9.484,12.945,9.079z M8.22,14.156l3.46,1.999c-0.37,0.556-0.695,1.141-0.995,1.743l-3.469-2.004	C7.523,15.296,7.856,14.716,8.22,14.156z M5.518,20.545l3.947,0.695c-0.156,0.643-0.282,1.297-0.357,1.967l-3.936-0.693	C5.255,21.847,5.37,21.191,5.518,20.545z M5.172,27.487l3.936-0.693c0.075,0.67,0.202,1.324,0.357,1.967l-3.947,0.695	C5.37,28.81,5.255,28.154,5.172,27.487z M8.22,35.846c-0.364-0.56-0.697-1.14-1.004-1.737l3.469-2.004	c0.3,0.601,0.625,1.187,0.995,1.743L8.22,35.846z M12.945,40.921c-0.532-0.404-1.043-0.832-1.532-1.287l2.569-3.062l1.523,1.296	L12.945,40.921z M12.036,30.264c-0.25-0.614-0.45-1.251-0.611-1.904l3.807-1.237c0.143,0.661,0.353,1.296,0.621,1.901L12.036,30.264	z M17.612,13.13l2.356,3.242c-0.579,0.339-1.119,0.734-1.617,1.179l-2.361-3.25C16.499,13.871,17.044,13.485,17.612,13.13z M18.352,32.449c0.497,0.444,1.037,0.839,1.616,1.178l-2.356,3.242c-0.568-0.355-1.112-0.741-1.622-1.17L18.352,32.449z M19.106,44.112c-0.64-0.198-1.268-0.425-1.879-0.684l1.372-3.773c0.608,0.266,1.234,0.494,1.878,0.684L19.106,44.112z M26,44.949	C25.667,44.966,25.338,45,25,45s-0.667-0.034-1-0.051v-4C24.332,40.97,24.662,41,25,41s0.668-0.03,1-0.051V44.949z M26,38.949	C25.668,38.973,25.338,39,25,39s-0.668-0.027-1-0.051v-4C24.329,34.982,24.662,35,25,35s0.671-0.018,1-0.051V38.949z M30.894,44.112	l-1.372-3.773c0.644-0.19,1.271-0.418,1.878-0.684l1.372,3.773C32.161,43.686,31.534,43.914,30.894,44.112z M32.388,36.87	l-2.356-3.243c0.579-0.339,1.119-0.734,1.617-1.179l2.362,3.251C33.501,36.129,32.956,36.515,32.388,36.87z M37.964,19.735	c0.25,0.613,0.45,1.251,0.611,1.904l-3.807,1.237c-0.144-0.661-0.353-1.296-0.621-1.901L37.964,19.735z M34.768,27.122l3.807,1.237	c-0.162,0.653-0.361,1.291-0.611,1.904l-3.817-1.24C34.415,28.418,34.625,27.783,34.768,27.122z M37.055,40.921l-2.561-3.053	l1.525-1.297l2.569,3.062C38.099,40.088,37.588,40.517,37.055,40.921z M41.781,35.844l-3.46-1.999	c0.37-0.556,0.695-1.142,0.995-1.743l3.469,2.004C42.477,34.704,42.144,35.284,41.781,35.844z M44.482,29.455l-3.947-0.695	c0.156-0.643,0.282-1.296,0.357-1.967l3.936,0.693C44.745,28.154,44.63,28.81,44.482,29.455z"/></svg>
